<?xml version="1.0" encoding="UTF-8"?>
<svg id="Layer_2" data-name="Layer 2" xmlns="http://www.w3.org/2000/svg" viewBox="0 0 608.91 172.93">
  <defs>
    <style>
      .cls-1 {
        fill: #fff;
      }

      .cls-1, .cls-2 {
        stroke-width: 0px;
      }

      .cls-2 {
        fill: red;
      }
    </style>
  </defs>
  <g id="Layer_1-2" data-name="Layer 1-2">
    <g>
      <path class="cls-1" d="M148.72,27.12c0-.87.7-1.57,1.57-1.57h44.76c28.79,0,46.67,15.02,46.67,39.21,0,14.71-7.29,26.79-20.07,33.4l26.48,46.88c.27.49.27,1.08,0,1.56s-.8.78-1.35.78h-40.86c-.61,0-1.16-.35-1.42-.91l-17.7-38v37.34c0,.87-.7,1.57-1.57,1.57h-34.93c-.87,0-1.57-.7-1.57-1.57V27.12h0ZM186.79,56.49v22.63h2.5c8.79,0,14.03-4.23,14.03-11.32s-5.25-11.32-14.03-11.32h-2.5Z"/>
      <path class="cls-1" d="M315.22,150.09c-36.63,0-65.32-27.95-65.32-63.63s28.7-63.63,65.32-63.63,65.32,27.94,65.32,63.62-28.69,63.63-65.32,63.63h0ZM288.98,86.46c0,15.25,11.28,26.75,26.24,26.75s26.24-11.5,26.24-26.75-11.28-26.75-26.24-26.75-26.24,11.5-26.24,26.75Z"/>
      <path class="cls-1" d="M387.73,86.46c0-35.68,29.36-63.63,66.85-63.63,10.2,0,20.6,2.03,29.27,5.72.65.28,1.04.96.94,1.67l-4.92,34.42c-.07.5-.39.94-.84,1.18s-.99.23-1.44,0c-6.97-3.66-15.1-5.75-22.33-5.75-16.28,0-28.1,11.11-28.1,26.41s11.89,26.24,28.27,26.24c7.67,0,15.9-2.34,23.82-6.75.45-.25,1-.26,1.46-.04.46.23.78.67.86,1.18l4.92,34.42c.1.69-.27,1.36-.9,1.65-9.9,4.53-20.97,6.93-32.02,6.93-36.91,0-65.83-27.95-65.83-63.63v-.02Z"/>
      <path class="cls-1" d="M539.39,27.12v36.43l24.25-37.28c.29-.45.78-.71,1.31-.71h40.02c.58,0,1.11.32,1.38.83s.24,1.13-.08,1.61l-33.93,50.9,36.37,66.17c.27.49.26,1.08-.02,1.55-.28.48-.79.77-1.35.77h-40.36c-.59,0-1.13-.34-1.4-.86l-26.2-51.94v51.23c0,.87-.7,1.57-1.57,1.57h-35.27c-.87,0-1.57-.7-1.57-1.57V27.12c0-.87.7-1.57,1.57-1.57h35.27c.87,0,1.57.7,1.57,1.57h.01Z"/>
      <path class="cls-2" d="M68.68,0h42v59.29l-42,42.49h60.77v37.06h-18.77v34.09h-42v-34.09H0v-37.06L68.68,0ZM40.02,101.78h28.66v-42.49l-28.66,42.49Z"/>
    </g>
  </g>
</svg>